<svg id="Layer_1" data-name="Layer 1" xmlns="http://www.w3.org/2000/svg" viewBox="0 0 566.55 105"><path d="M119.64,104.31H0L59.82.69Zm-85-20H85L59.82,40.69Z" style="fill:#fff"/><path d="M263.15,105h-105V0h105Zm-85-20h65V20h-65Z" style="fill:#fff"/><path d="M361.47,105A52.5,52.5,0,1,1,414,52.5,52.56,52.56,0,0,1,361.47,105Zm0-85A32.5,32.5,0,1,0,394,52.5,32.54,32.54,0,0,0,361.47,20Z" style="fill:#fff"/><path d="M545.83,104.1H478.77L458,40.32,512.3.9l54.25,39.42Zm-52.53-20h38L543,48,512.3,25.62,481.55,48Z" style="fill:#fff"/></svg>